<?xml version="1.0" standalone="no"?>
<!DOCTYPE svg PUBLIC "-//W3C//DTD SVG 20010904//EN"
 "http://www.w3.org/TR/2001/REC-SVG-20010904/DTD/svg10.dtd">
<svg version="1.0" xmlns="http://www.w3.org/2000/svg"
 width="359.000000pt" height="382.000000pt" viewBox="0 0 359.000000 382.000000"
 preserveAspectRatio="xMidYMid meet">

<g transform="translate(0.000000,382.000000) scale(0.100000,-0.100000)"
fill="#6200EA" stroke="none">
<path d="M1643 3628 c-270 -331 -297 -365 -402 -494 -58 -71 -162 -200 -233
-286 l-128 -158 915 0 915 0 -128 158 c-71 86 -175 215 -233 286 -105 129
-132 163 -402 494 -82 100 -150 182 -152 182 -2 0 -70 -82 -152 -182z"/>
<path d="M1065 3444 c-126 -74 -284 -165 -350 -203 -66 -38 -203 -117 -305
-176 -102 -58 -186 -109 -188 -113 -1 -5 64 -46 145 -92 81 -47 168 -97 194
-112 l47 -27 205 252 c112 139 237 293 277 342 41 50 101 124 135 165 57 69
81 102 73 99 -2 -1 -106 -62 -233 -135z"/>
<path d="M2297 3567 c4 -7 133 -167 288 -357 154 -190 307 -377 339 -417 l57
-72 58 32 c161 91 331 192 331 198 0 4 -24 20 -52 36 -48 27 -150 85 -811 466
-120 70 -214 121 -210 114z"/>
<path d="M100 2123 c0 -339 2 -614 5 -612 2 3 58 147 124 320 65 173 151 397
190 498 39 101 68 187 66 191 -5 8 -369 220 -378 220 -4 0 -7 -277 -7 -617z"/>
<path d="M3295 2634 c-99 -58 -183 -109 -187 -113 -4 -4 24 -90 63 -191 39
-102 119 -313 179 -470 60 -157 115 -301 124 -320 14 -32 15 18 16 583 0 339
-3 617 -7 617 -5 0 -89 -48 -188 -106z"/>
<path d="M843 2448 c2 -7 55 -101 117 -208 291 -505 387 -671 505 -875 70
-121 170 -294 222 -385 52 -91 98 -169 103 -173 8 -9 7 -11 168 268 63 110
147 256 187 325 40 69 116 202 170 295 54 94 121 208 148 255 176 305 287 499
287 504 0 3 -430 6 -956 6 -761 0 -955 -3 -951 -12z"/>
<path d="M616 2198 c-40 -105 -97 -254 -192 -503 -29 -77 -88 -230 -129 -340
-42 -110 -94 -247 -116 -303 -22 -57 -39 -105 -37 -106 2 -2 53 -10 113 -20
61 -9 207 -33 325 -52 118 -18 287 -45 375 -59 88 -14 241 -39 340 -55 99 -16
202 -32 229 -36 l49 -7 -20 34 c-12 19 -55 94 -97 167 -42 72 -109 189 -150
260 -121 210 -443 768 -520 902 -40 69 -85 146 -100 173 -15 26 -28 47 -29 47
-1 0 -20 -46 -41 -102z"/>
<path d="M2863 2183 c-33 -60 -126 -220 -205 -358 -207 -357 -436 -754 -543
-940 -56 -97 -88 -161 -80 -163 6 -2 111 13 231 33 120 19 289 46 374 60 348
56 591 95 695 111 61 9 111 18 113 19 2 2 -13 45 -34 96 -20 52 -49 128 -64
169 -15 41 -64 170 -108 285 -44 116 -99 260 -122 320 -23 61 -56 148 -74 195
-18 47 -50 129 -70 183 -21 53 -41 97 -45 97 -4 0 -34 -48 -68 -107z"/>
<path d="M590 637 c3 -3 46 -28 95 -57 50 -28 194 -112 320 -185 540 -311 668
-385 671 -385 3 0 3 102 2 227 l-3 228 -75 12 c-41 6 -163 26 -270 43 -223 36
-300 49 -530 84 -91 15 -176 29 -190 32 -14 3 -23 3 -20 1z"/>
<path d="M2875 619 c-60 -10 -166 -27 -235 -38 -157 -25 -482 -78 -620 -100
l-105 -17 -3 -227 c-1 -125 0 -227 2 -227 6 0 50 25 671 385 226 130 412 239
414 241 5 5 13 6 -124 -17z"/>
</g>
</svg>
