<svg width="24" height="25" viewBox="0 0 24 25" fill="none" xmlns="http://www.w3.org/2000/svg">
<path d="M19.5255 3.40353C19.2323 3.11028 18.7583 3.11028 18.465 3.40353L16.392 5.47653C15.0803 4.94853 13.6155 4.60803 12 4.60803C4.80079 4.60803 0.303785 11.5928 0.116285 11.8905C0.00528514 12.0668 -0.0232149 12.2715 0.0202851 12.4598C-0.0157149 12.6383 0.00753515 12.8295 0.110285 12.9975C0.214535 13.1685 1.70179 15.5393 4.34179 17.5283L2.59954 19.2698C2.30629 19.563 2.30629 20.037 2.59954 20.3303C2.74579 20.4765 2.93779 20.55 3.12979 20.55C3.32178 20.55 3.51379 20.4765 3.66004 20.3303L19.5255 4.46403C19.818 4.17153 19.818 3.69678 19.5255 3.40353ZM7.68003 12.393C7.68003 10.011 9.61803 8.07303 12 8.07303C12.534 8.07303 13.044 8.17354 13.5158 8.35204L12.27 9.59779C12.18 9.58804 12.0923 9.57304 12 9.57304C10.4453 9.57304 9.18003 10.8383 9.18003 12.393C9.18003 12.4853 9.19578 12.573 9.20478 12.663L7.95903 13.9088C7.78054 13.4378 7.68003 12.927 7.68003 12.393ZM23.8838 12.984C23.6963 13.281 19.1993 20.2665 12 20.2665C10.1205 20.2665 8.44053 19.8098 6.97428 19.1288L9.92404 16.1783C10.5405 16.518 11.2485 16.7123 12.0008 16.7123C14.3828 16.7123 16.3208 14.7743 16.3208 12.3923C16.3208 11.64 16.1265 10.9328 15.7868 10.3155L19.1393 6.96303C22.1048 9.01654 23.7803 11.6948 23.8905 11.8763C23.9933 12.0443 24.0165 12.2355 23.9805 12.414C24.0233 12.6038 23.9955 12.8078 23.8838 12.984ZM11.0625 15.0405L14.6475 11.4563C14.7525 11.751 14.82 12.0638 14.82 12.3938C14.82 13.9485 13.5548 15.2138 12 15.2138C11.67 15.213 11.3573 15.1455 11.0625 15.0405Z" fill="url(#paint0_linear_16_250)"/>
<defs>
<linearGradient id="paint0_linear_16_250" x1="0.000854447" y1="11.8668" x2="24.1877" y2="11.8668" gradientUnits="userSpaceOnUse">
<stop stop-color="#6200EA"/>
<stop offset="1" stop-color="#C900EA"/>
</linearGradient>
</defs>
</svg>
