<svg width="24" height="24" viewBox="0 0 24 24" fill="none" xmlns="http://www.w3.org/2000/svg">
<g clip-path="url(#clip0_16_122)">
<path d="M12 14.5719C13.4204 14.5719 14.5718 13.4204 14.5718 12C14.5718 10.5797 13.4204 9.42822 12 9.42822C10.5796 9.42822 9.42816 10.5797 9.42816 12C9.42816 13.4204 10.5796 14.5719 12 14.5719Z" fill="url(#paint0_linear_16_122)"/>
<path d="M23.9247 11.6485C21.7643 6.80489 16.8608 3.42725 12 3.42725C7.1393 3.42725 2.23571 6.80489 0.0753863 11.6485C-0.0251288 11.872 -0.0251288 12.1279 0.0753863 12.3514C2.23571 17.195 7.1393 20.5727 12 20.5727C16.8608 20.5727 21.7643 17.195 23.9247 12.3514C24.0251 12.1279 24.0251 11.872 23.9247 11.6485ZM12 16.2863C9.63273 16.2863 7.71367 14.3673 7.71367 12C7.71367 9.63266 9.63273 7.7136 12 7.7136C14.3673 7.7136 16.2864 9.63266 16.2864 12C16.2864 14.3673 14.3673 16.2863 12 16.2863Z" fill="url(#paint1_linear_16_122)"/>
</g>
<defs>
<linearGradient id="paint0_linear_16_122" x1="9.42816" y1="12" x2="14.6121" y2="12" gradientUnits="userSpaceOnUse">
<stop stop-color="#6200EA"/>
<stop offset="1" stop-color="#C900EA"/>
</linearGradient>
<linearGradient id="paint1_linear_16_122" x1="-4.47035e-08" y1="12" x2="24.1881" y2="12" gradientUnits="userSpaceOnUse">
<stop stop-color="#6200EA"/>
<stop offset="1" stop-color="#C900EA"/>
</linearGradient>
<clipPath id="clip0_16_122">
<rect width="24" height="24" fill="white"/>
</clipPath>
</defs>
</svg>
